<svg xmlns="http://www.w3.org/2000/svg" viewBox="0 0 600 800" preserveAspectRatio="xMidYMid slice">
<defs><pattern id="L" width="8" height="6" patternUnits="userSpaceOnUse"><rect width="8" height="6" fill="#1F3563"/><rect y="5" width="8" height="1" fill="#14213D"/></pattern><pattern id="O" width="8" height="6" patternUnits="userSpaceOnUse"><rect width="8" height="6" fill="#EA6A12"/><rect y="5" width="8" height="1" fill="#C9560A"/></pattern><pattern id="G" width="8" height="6" patternUnits="userSpaceOnUse"><rect width="8" height="6" fill="#4D6699"/><rect y="5" width="8" height="1" fill="#1F3563"/></pattern><pattern id="W" width="8" height="6" patternUnits="userSpaceOnUse"><rect width="8" height="6" fill="#D5DEEE"/><rect y="5" width="8" height="1" fill="#A9BADB"/></pattern></defs>
<rect width="600" height="800" fill="#0B1426"/>
<rect x="170" y="600" width="260" height="40" fill="url(#G)"/><path d="M300 180 420 280 400 460 300 600 200 460 180 280Z" fill="url(#W)"/><path d="M300 180 420 280 300 330 180 280Z" fill="url(#O)"/><rect x="250" y="80" width="100" height="60" fill="url(#G)"/><path d="M300 140v36" stroke="#EA6A12" stroke-width="8"/></svg>